<svg width="20" height="15" viewBox="0 0 20 15" fill="none" xmlns="http://www.w3.org/2000/svg">
<path d="M1.36068 15H4.54102V7.27396L0 3.86929V13.6518C0 14.3976 0.615234 15 1.36068 15Z" fill="#4285F4"/>
<path d="M15.4573 15H18.6377C19.3978 15 19.9984 14.3845 19.9984 13.6388V3.86929L15.4573 7.27396V15Z" fill="#34A853"/>
<path d="M15.4573 1.36829V7.27396L20 3.86929V2.0489C20 0.360408 18.0762 -0.597003 16.7269 0.412512L15.4573 1.36829Z" fill="#FBBC04"/>
<path d="M4.54102 7.27395V1.36829L10 5.46659L15.4574 1.36829V7.27395L10 11.3592L4.54102 7.27395Z" fill="#EA4335"/>
<path d="M0 2.04949V3.86987L4.54264 7.27454V1.36888L3.27311 0.413095C1.92383 -0.594791 0 0.374017 0 2.04949Z" fill="#C5221F"/>
</svg>
