<svg width="17" height="17" viewBox="0 0 17 17" fill="none" xmlns="http://www.w3.org/2000/svg">
<path d="M16.5046 6.70125H15.8333V6.66667H8.33333V10H13.0429C12.3558 11.9404 10.5096 13.3333 8.33333 13.3333C5.57208 13.3333 3.33333 11.0946 3.33333 8.33333C3.33333 5.57208 5.57208 3.33333 8.33333 3.33333C9.60792 3.33333 10.7675 3.81417 11.6504 4.59958L14.0075 2.2425C12.5192 0.855417 10.5283 0 8.33333 0C3.73125 0 0 3.73125 0 8.33333C0 12.9354 3.73125 16.6667 8.33333 16.6667C12.9354 16.6667 16.6667 12.9354 16.6667 8.33333C16.6667 7.77458 16.6092 7.22917 16.5046 6.70125Z" fill="#FBC02D"/>
<path d="M0.960815 4.45458L3.69873 6.4625C4.43957 4.62833 6.23373 3.33333 8.33332 3.33333C9.6079 3.33333 10.7675 3.81417 11.6504 4.59958L14.0075 2.2425C12.5191 0.855417 10.5283 0 8.33332 0C5.13248 0 2.35665 1.80708 0.960815 4.45458Z" fill="#E53935"/>
<path d="M8.3333 16.6667C10.4858 16.6667 12.4416 15.8429 13.9204 14.5033L11.3412 12.3208C10.5046 12.9546 9.46455 13.3333 8.3333 13.3333C6.1658 13.3333 4.32538 11.9512 3.63205 10.0225L0.914551 12.1162C2.29372 14.815 5.09455 16.6667 8.3333 16.6667Z" fill="#4CAF50"/>
<path d="M16.5046 6.70126L16.4979 6.66667H15.8333H8.33331V10H13.0429C12.7129 10.9321 12.1133 11.7358 11.34 12.3213C11.3404 12.3208 11.3408 12.3208 11.3412 12.3204L13.9204 14.5029C13.7379 14.6688 16.6666 12.5 16.6666 8.33334C16.6666 7.77459 16.6091 7.22917 16.5046 6.70126Z" fill="#1565C0"/>
</svg>
