<svg width="204" height="181" viewBox="0 0 204 181" fill="none" xmlns="http://www.w3.org/2000/svg">
<path d="M101.73 64.5298H100.902V43.9062C100.902 40.7406 99.5203 37.7046 97.0601 35.4661C94.5998 33.2277 91.263 31.9702 87.7838 31.9702H39.7605C36.2812 31.9702 32.9444 33.2277 30.4842 35.4661C28.0239 37.7046 26.6418 40.7406 26.6418 43.9062V157.049C26.6418 160.215 28.0239 163.251 30.4842 165.489C32.9444 167.728 36.2812 168.985 39.7605 168.985H87.7836C91.2628 168.985 94.5996 167.728 97.0599 165.489C99.5201 163.251 100.902 160.215 100.902 157.049V79.21H101.73L101.73 64.5298Z" fill="#3F3D56"/>
<path d="M88.313 35.0752H82.0444C82.3328 35.7183 82.443 36.4161 82.3652 37.107C82.2873 37.798 82.0239 38.4609 81.5981 39.0374C81.1723 39.6139 80.5972 40.0863 79.9235 40.4129C79.2498 40.7395 78.4981 40.9103 77.7347 40.9103H50.2229C49.4596 40.9103 48.708 40.7394 48.0344 40.4128C47.3608 40.0862 46.7858 39.6139 46.36 39.0375C45.9342 38.4611 45.6708 37.7982 45.5929 37.1074C45.5151 36.4165 45.6251 35.7188 45.9134 35.0758H40.0576C37.4592 35.0758 34.9672 36.0149 33.1299 37.6866C31.2926 39.3583 30.2604 41.6256 30.2604 43.9898V156.966C30.2604 159.33 31.2926 161.597 33.1299 163.269C34.9672 164.941 37.4592 165.88 40.0576 165.88H88.3112C90.9096 165.88 93.4015 164.941 95.2388 163.269C97.0762 161.597 98.1084 159.33 98.1084 156.966V43.9892C98.1084 41.6251 97.0762 39.3578 95.2388 37.6861C93.4015 36.0144 90.9096 35.0752 88.3112 35.0752H88.313Z" fill="white"/>
<path d="M91.9715 57.2893H36.3998V143.666H91.9715V57.2893Z" fill="#E6E6E6"/>
<path d="M64.2682 159.566C67.2394 159.566 69.6481 157.375 69.6481 154.672C69.6481 151.968 67.2394 149.777 64.2682 149.777C61.297 149.777 58.8883 151.968 58.8883 154.672C58.8883 157.375 61.297 159.566 64.2682 159.566Z" fill="#E6E6E6"/>
<path d="M89.985 152.912L89.3704 158.318L92.8531 157.945L93.2628 153.471L89.985 152.912Z" fill="#FFB9B9"/>
<path d="M80.7663 111.904C80.7663 111.904 62.9427 127.562 74.2104 132.408H77.6931C77.6931 132.408 85.2732 121.037 88.9609 121.224L89.9851 132.035L89.3706 153.844L93.8777 154.03C93.8777 154.03 96.541 143.033 96.3361 136.882L101.048 114.141L80.7663 111.904Z" fill="#2F2E41"/>
<path d="M75.2343 131.662L77.6927 132.408C77.6927 132.408 87.3214 130.358 87.9352 130.544L89.8415 130.532L89.7794 126.07H81.5854L75.2343 131.662Z" fill="#2F2E41"/>
<path d="M93.2627 157.199C93.2627 157.199 89.575 155.708 88.9605 157.199C88.3459 158.691 88.5508 162.978 88.5508 162.978C89.0423 163.837 89.1872 164.827 88.9605 165.774C88.5508 167.265 90.5995 168.01 93.2627 167.265C95.926 166.519 95.926 164.655 95.926 164.655L93.2627 157.199Z" fill="#2F2E41"/>
<path d="M96.3357 125.697C96.3357 125.697 99.2038 124.205 98.9989 126.442C98.829 127.92 98.4145 129.365 97.7696 130.729C97.7696 130.729 100.433 137.067 97.7696 137.626C95.1064 138.185 93.0577 136.881 93.0577 135.949C93.0577 135.016 96.3357 125.697 96.3357 125.697Z" fill="#2F2E41"/>
<path d="M87.3215 74.6242L87.7314 81.7075L91.214 84.5031L95.1066 79.4704V74.4378L87.3215 74.6242Z" fill="#FFB9B9"/>
<path d="M89.9847 81.7073L87.6395 80.1217L86.0924 82.2665L79.1268 85.9941L83.2238 95.6868L83.4287 105.193C83.4287 105.193 75.8486 112.276 80.3557 113.209C84.8628 114.141 100.843 116.191 101.662 114.513C102.481 112.836 100.638 95.5006 100.638 95.5006L101.252 80.775L95.1068 78.7532L89.9847 81.7073Z" fill="#50F5F2"/>
<path d="M77.4878 93.5129C77.4878 93.5129 75.8488 104.075 78.922 104.075C80.747 104.08 82.5559 103.764 84.2485 103.143L81.7901 97.3643L82.8143 93.4498L77.4878 93.5129Z" fill="#FFB9B9"/>
<path d="M82.1998 102.77L84.4534 103.143C84.4534 103.143 91.0092 99.4156 91.4189 99.2288C91.8286 99.0421 84.8631 95.8736 84.8631 95.8736L80.1511 97.5512L82.1998 102.77Z" fill="#FFB9B9"/>
<path opacity="0.1" d="M84.8631 95.8736L81.9041 96.9269L82.8146 93.4504L77.4881 93.5127C77.4881 93.5127 75.8491 104.074 78.9222 104.074C80.7473 104.08 82.5562 103.764 84.2487 103.143L84.2332 103.106L84.4536 103.143C84.4536 103.143 91.0094 99.4148 91.4191 99.2281C91.8288 99.0413 84.8631 95.8736 84.8631 95.8736Z" fill="black"/>
<path d="M92.061 78.1585C95.2918 78.1585 97.911 75.7755 97.911 72.8358C97.911 69.8962 95.2918 67.5132 92.061 67.5132C88.8301 67.5132 86.2109 69.8962 86.2109 72.8358C86.2109 75.7755 88.8301 78.1585 92.061 78.1585Z" fill="#FFB9B9"/>
<path d="M86.8888 66.8311L85.7458 66.4149C85.7458 66.4149 88.1357 64.0209 91.4607 64.2291L90.5254 63.2923C90.5254 63.2923 92.8115 62.4596 94.8896 64.6454C95.9821 65.7938 97.246 67.145 98.0347 68.6663H99.2589L98.748 69.6897L100.536 70.7137L98.7002 70.5298C98.874 71.4134 98.8145 72.322 98.5266 73.1806L98.5758 73.9901C98.5758 73.9901 96.4485 70.9954 96.4485 70.5791V71.62C96.4485 71.62 95.3055 70.6832 95.3055 70.0587L94.682 70.7873L94.3694 69.6406L90.5248 70.7855L91.1483 69.8486L88.7583 70.161L89.6936 69.0161C89.6936 69.0161 86.9921 70.3692 86.888 71.5142C86.7839 72.6593 85.4333 74.1162 85.4333 74.1162L84.8099 73.0753C84.8099 73.0753 83.8755 68.3924 86.8888 66.8311Z" fill="#2F2E41"/>
<path d="M97.1551 90.2817C96.1211 91.4439 95.5442 92.8874 95.5161 94.3825L84.658 94.0097C84.658 94.0097 81.7899 93.637 81.7899 95.501V97.3648C81.7899 97.3648 83.2241 96.8057 84.0435 97.3648C84.8629 97.924 93.6723 102.77 97.9745 100.906C102.277 99.0424 103.301 91.7729 103.301 91.7729C103.301 91.7729 99.4087 88.7904 97.1551 90.2817Z" fill="#FFB9B9"/>
<path d="M99.6146 80.9616L101.254 80.7752C101.254 80.7752 104.531 81.148 104.122 86.9264C103.712 92.7049 103.507 93.0776 103.507 93.0776C103.507 93.0776 99.2049 89.536 96.1319 91.2138L99.6146 80.9616Z" fill="#50F5F2"/>
<path d="M79.9463 85.9951H79.1269C78.0651 87.2153 77.4876 88.726 77.4878 90.2823C77.469 91.9491 77.2283 93.6077 76.7709 95.2218L83.2243 94.1967L79.9463 85.9951Z" fill="#50F5F2"/>
<path d="M178.881 57.2844H119.393V67.9705H178.881V57.2844Z" fill="#E6E6E6"/>
<path d="M120.661 66.8168H177.613V58.439H120.661V66.8168Z" fill="white"/>
<path d="M125.647 59.3662C126.341 59.3662 127.019 59.5534 127.596 59.9042C128.173 60.2549 128.622 60.7534 128.888 61.3367C129.153 61.92 129.223 62.5618 129.088 63.181C128.952 63.8002 128.618 64.3689 128.127 64.8154C127.637 65.2618 127.012 65.5658 126.331 65.689C125.651 65.8121 124.945 65.7489 124.304 65.5073C123.663 65.2657 123.115 64.8566 122.73 64.3316C122.344 63.8067 122.138 63.1896 122.138 62.5582C122.138 61.7117 122.508 60.8997 123.166 60.3011C123.824 59.7025 124.716 59.3662 125.647 59.3662V59.3662Z" fill="#50F5F2"/>
<path d="M168.661 61.3091H134.036V62.003H168.661V61.3091Z" fill="#E6E6E6"/>
<path d="M168.661 63.1132H134.036V63.8072H168.661V63.1132Z" fill="#E6E6E6"/>
<path d="M178.881 72.5339H119.393V83.2201H178.881V72.5339Z" fill="#E6E6E6"/>
<path d="M120.661 82.0663H177.613V73.6885H120.661V82.0663Z" fill="white"/>
<path d="M125.647 80.9998C127.584 80.9998 129.155 79.5707 129.155 77.8078C129.155 76.0449 127.584 74.6157 125.647 74.6157C123.709 74.6157 122.138 76.0449 122.138 77.8078C122.138 79.5707 123.709 80.9998 125.647 80.9998Z" fill="#50F5F2"/>
<path d="M168.661 76.5586H134.036V77.2526H168.661V76.5586Z" fill="#E6E6E6"/>
<path d="M168.661 78.3628H134.036V79.0567H168.661V78.3628Z" fill="#E6E6E6"/>
<path d="M178.881 87.7834H119.393V98.4696H178.881V87.7834Z" fill="#E6E6E6"/>
<path d="M120.661 97.3158H177.613V88.938H120.661V97.3158Z" fill="white"/>
<path d="M125.647 96.2493C127.584 96.2493 129.155 94.8202 129.155 93.0573C129.155 91.2944 127.584 89.8652 125.647 89.8652C123.709 89.8652 122.138 91.2944 122.138 93.0573C122.138 94.8202 123.709 96.2493 125.647 96.2493Z" fill="#50F5F2"/>
<path d="M168.661 91.8082H134.036V92.5021H168.661V91.8082Z" fill="#E6E6E6"/>
<path d="M168.661 93.6123H134.036V94.3063H168.661V93.6123Z" fill="#E6E6E6"/>
<rect x="0.5" y="0.5" width="203" height="179.403" stroke="black" stroke-dasharray="5 5"/>
</svg>
