<svg width="262" height="232" viewBox="0 0 262 232" fill="none" xmlns="http://www.w3.org/2000/svg">
<g clip-path="url(#clip0_1_10)">
<path d="M87.9746 158.092C100.657 158.092 110.938 146.616 110.938 132.459C110.938 118.303 100.657 106.827 87.9746 106.827C75.2924 106.827 65.0115 118.303 65.0115 132.459C65.0115 146.616 75.2924 158.092 87.9746 158.092Z" fill="#E6E6E6"/>
<path d="M81.7704 169.889L87.419 173.796V147.386L81.0876 143.006C80.5641 142.644 80.1816 142.076 80.0159 141.414C80.6207 141.285 81.2469 141.414 81.7704 141.777L87.419 145.684V135.442C87.419 133.461 87.6367 131.488 88.0672 129.565C88.4976 131.488 88.7153 133.461 88.7153 135.442V152.158L97.0486 146.394C97.714 145.934 98.4839 145.697 99.2666 145.711C98.9297 146.5 98.3968 147.164 97.7314 147.624L88.7153 153.86V216.846H87.419V175.499L81.0876 171.119C80.5641 170.757 80.1816 170.189 80.0159 169.527C80.6207 169.398 81.2469 169.527 81.7704 169.889Z" fill="#CCCCCC"/>
<path d="M53.9631 160.268C66.6453 160.268 76.9263 148.792 76.9263 134.636C76.9263 120.48 66.6453 109.004 53.9631 109.004C41.2809 109.004 31 120.48 31 134.636C31 148.792 41.2809 160.268 53.9631 160.268Z" fill="#E6E6E6"/>
<path d="M60.1674 172.065L54.5187 175.973V149.562L60.8502 145.183C61.3736 144.821 61.7561 144.252 61.9218 143.59C61.317 143.461 60.6908 143.591 60.1673 143.953L54.5187 147.86V137.619C54.5187 135.638 54.3011 133.664 53.8706 131.742C53.4401 133.664 53.2224 135.638 53.2224 137.619V154.334L44.8891 148.57C44.2237 148.11 43.4538 147.873 42.6711 147.887C43.008 148.676 43.5409 149.34 44.2063 149.8L53.2224 156.037V216.457H54.5187V177.675L60.8502 173.295C61.3736 172.933 61.7561 172.365 61.9218 171.703C61.317 171.574 60.6908 171.703 60.1674 172.065Z" fill="#CCCCCC"/>
<path d="M70.6445 125.264C92.48 125.264 110.181 105.506 110.181 81.1321C110.181 56.7586 92.48 37 70.6445 37C48.809 37 31.1078 56.7586 31.1078 81.1321C31.1078 105.506 48.809 125.264 70.6445 125.264Z" fill="#E6E6E6"/>
<path d="M81.3259 145.577L71.6005 152.304V106.832L82.5016 99.2915C83.4028 98.6681 84.0614 97.6895 84.3468 96.5497L84.3468 96.5497H84.3468C83.3053 96.3276 82.2272 96.5504 81.326 97.1737L71.6005 103.901V86.2681C71.6005 82.8569 71.2257 79.4587 70.4845 76.1494C69.7433 79.4587 69.3686 82.8569 69.3686 86.2681V115.048L55.0207 105.124C53.8751 104.331 52.5495 103.923 51.2019 103.948C51.782 105.306 52.6995 106.449 53.8451 107.241L69.3686 117.979V216.553H71.6005V155.235L82.5016 147.694C83.4028 147.071 84.0614 146.092 84.3468 144.953L84.3468 144.953H84.3468C83.3054 144.731 82.2272 144.953 81.3259 145.577Z" fill="#CCCCCC"/>
<path d="M231 216.473H38.9326V217H231V216.473Z" fill="#3F3D56"/>
<path d="M182.888 79.4549H182.351V49.4032C182.351 46.6763 181.381 44.0611 179.654 42.1329C177.926 40.2047 175.583 39.1215 173.14 39.1215H113.184C110.741 39.1215 108.398 40.2047 106.67 42.1329C104.943 44.0611 103.972 46.6763 103.972 49.4032V62.57H103.769C103.626 62.57 103.488 62.6336 103.387 62.7469C103.285 62.8601 103.228 63.0137 103.228 63.1739V69.0624C103.228 69.2226 103.285 69.3762 103.387 69.4894C103.488 69.6027 103.626 69.6663 103.769 69.6663H103.972V75.5601H103.722C103.651 75.5601 103.581 75.5757 103.515 75.6061C103.449 75.6364 103.39 75.6809 103.339 75.737C103.289 75.793 103.249 75.8596 103.222 75.9329C103.195 76.0062 103.181 76.0847 103.181 76.164V87.3081C103.181 87.4682 103.238 87.6218 103.339 87.7351C103.441 87.8483 103.578 87.9119 103.722 87.9119H103.972V92.2341H103.746C103.674 92.2341 103.604 92.2497 103.539 92.28C103.473 92.3104 103.413 92.3548 103.363 92.4109C103.313 92.467 103.273 92.5335 103.246 92.6068C103.219 92.68 103.205 92.7586 103.205 92.8379V104.088C103.205 104.248 103.262 104.401 103.363 104.515C103.464 104.628 103.602 104.691 103.746 104.691H103.972V206.647C103.972 209.374 104.943 211.989 106.67 213.918C108.398 215.846 110.741 216.929 113.184 216.929H173.14C175.583 216.929 177.926 215.846 179.654 213.918C181.381 211.989 182.351 209.374 182.351 206.647V101.008H182.888C183.031 101.008 183.169 100.944 183.27 100.831C183.372 100.717 183.429 100.564 183.429 100.404V80.0588C183.429 79.8987 183.372 79.7451 183.27 79.6318C183.169 79.5186 183.031 79.4549 182.888 79.4549Z" fill="#3F3D56"/>
<path d="M145.632 47.043H136.515C136.242 47.0427 135.979 46.9212 135.786 46.7052C135.592 46.4892 135.483 46.1963 135.483 45.8908V45.4502C135.483 45.1447 135.592 44.8519 135.786 44.6359C135.979 44.4199 136.242 44.2984 136.515 44.2981H145.632C145.906 44.2984 146.168 44.4199 146.362 44.6359C146.555 44.8519 146.664 45.1447 146.664 45.4502V45.8908C146.664 46.1963 146.555 46.4892 146.362 46.7052C146.168 46.9212 145.906 47.0427 145.632 47.043Z" fill="white"/>
<path d="M149.461 47.08C150.158 47.08 150.723 46.4496 150.723 45.6719C150.723 44.8941 150.158 44.2637 149.461 44.2637C148.765 44.2637 148.2 44.8941 148.2 45.6719C148.2 46.4496 148.765 47.08 149.461 47.08Z" fill="white"/>
<path d="M171.286 43.7521H162.308V44.9572C162.308 46.4749 161.768 47.9304 160.807 49.0036C159.845 50.0767 158.541 50.6796 157.182 50.6796H128.582C127.909 50.68 127.243 50.5324 126.621 50.2452C125.999 49.9581 125.434 49.5371 124.958 49.0062C124.482 48.4753 124.104 47.845 123.846 47.1512C123.589 46.4573 123.456 45.7136 123.455 44.9625V43.7521H115.038C113.387 43.7521 111.804 44.4842 110.636 45.7873C109.469 47.0904 108.813 48.8578 108.813 50.7007V205.347C108.813 207.19 109.469 208.958 110.636 210.261C111.804 211.564 113.387 212.296 115.038 212.296H171.286C172.936 212.296 174.519 211.564 175.686 210.261C176.853 208.959 177.508 207.192 177.508 205.35V50.7007C177.509 49.7885 177.348 48.8853 177.036 48.0424C176.723 47.1995 176.265 46.4336 175.687 45.7884C175.11 45.1432 174.424 44.6312 173.669 44.2818C172.914 43.9325 172.105 43.7525 171.288 43.7521H171.286Z" fill="white"/>
<path d="M155.209 193.53H131.112C129.389 193.53 127.737 192.766 126.518 191.406C125.3 190.046 124.615 188.202 124.615 186.279C124.615 184.355 125.3 182.511 126.518 181.151C127.737 179.791 129.389 179.027 131.112 179.027H155.209C156.932 179.027 158.585 179.791 159.803 181.151C161.022 182.511 161.706 184.355 161.706 186.279C161.706 188.202 161.022 190.046 159.803 191.406C158.585 192.766 156.932 193.53 155.209 193.53Z" fill="#50F5F2"/>
<path d="M164.659 133.963H121.662C121.067 133.963 120.496 133.699 120.075 133.229C119.655 132.759 119.418 132.122 119.418 131.457C119.418 130.793 119.655 130.156 120.075 129.686C120.496 129.216 121.067 128.952 121.662 128.952H164.659C165.254 128.952 165.825 129.216 166.246 129.686C166.667 130.156 166.904 130.793 166.904 131.457C166.904 132.122 166.667 132.759 166.246 133.229C165.825 133.699 165.254 133.963 164.659 133.963Z" fill="#E6E6E6"/>
<path d="M164.659 141.346H121.662C121.067 141.346 120.496 141.082 120.075 140.613C119.655 140.143 119.418 139.506 119.418 138.841C119.418 138.177 119.655 137.539 120.075 137.07C120.496 136.6 121.067 136.336 121.662 136.336H164.659C165.254 136.336 165.825 136.6 166.246 137.07C166.667 137.539 166.904 138.177 166.904 138.841C166.904 139.506 166.667 140.143 166.246 140.613C165.825 141.082 165.254 141.346 164.659 141.346Z" fill="#E6E6E6"/>
<path d="M164.659 148.73H121.662C121.067 148.73 120.496 148.466 120.075 147.996C119.655 147.526 119.418 146.889 119.418 146.225C119.418 145.56 119.655 144.923 120.075 144.453C120.496 143.984 121.067 143.72 121.662 143.72H164.659C165.254 143.72 165.825 143.984 166.246 144.453C166.667 144.923 166.904 145.56 166.904 146.225C166.904 146.889 166.667 147.526 166.246 147.996C165.825 148.466 165.254 148.73 164.659 148.73Z" fill="#E6E6E6"/>
<path d="M164.659 156.114H121.662C121.067 156.114 120.496 155.85 120.075 155.38C119.655 154.91 119.418 154.273 119.418 153.609C119.418 152.944 119.655 152.307 120.075 151.837C120.496 151.367 121.067 151.103 121.662 151.103H164.659C165.254 151.103 165.825 151.367 166.246 151.837C166.667 152.307 166.904 152.944 166.904 153.609C166.904 154.273 166.667 154.91 166.246 155.38C165.825 155.85 165.254 156.114 164.659 156.114Z" fill="#E6E6E6"/>
<path d="M135.365 163.497H121.662C121.067 163.497 120.496 163.234 120.075 162.764C119.655 162.294 119.418 161.657 119.418 160.992C119.418 160.328 119.655 159.691 120.075 159.221C120.496 158.751 121.067 158.487 121.662 158.487H135.365C135.96 158.487 136.531 158.751 136.952 159.221C137.373 159.691 137.609 160.328 137.609 160.992C137.609 161.657 137.373 162.294 136.952 162.764C136.531 163.234 135.96 163.497 135.365 163.497H135.365Z" fill="#E6E6E6"/>
<path d="M171.389 113.433H114.933C114.434 113.432 113.955 113.211 113.602 112.817C113.249 112.423 113.051 111.889 113.05 111.332V64.5607C113.051 64.0037 113.249 63.4696 113.602 63.0757C113.955 62.6818 114.434 62.4602 114.933 62.4596H171.389C171.888 62.4602 172.366 62.6818 172.719 63.0757C173.072 63.4696 173.27 64.0037 173.271 64.5607V111.332C173.27 111.889 173.072 112.423 172.719 112.817C172.366 113.211 171.888 113.432 171.389 113.433Z" fill="#E6E6E6"/>
<g opacity="0.1">
<path opacity="0.1" d="M181.389 100.082C181.389 99.7198 181.389 99.3559 181.389 98.9902C181.375 99.2722 181.375 99.5547 181.389 99.8367C181.387 99.9184 181.389 100 181.389 100.082Z" fill="black"/>
</g>
<path d="M190.806 120.818C194.23 120.818 197.005 117.72 197.005 113.899C197.005 110.077 194.23 106.98 190.806 106.98C187.383 106.98 184.607 110.077 184.607 113.899C184.607 117.72 187.383 120.818 190.806 120.818Z" fill="#FFB8B8"/>
<path d="M206.928 170.006C207.17 169.759 207.361 169.455 207.486 169.117C207.612 168.779 207.669 168.414 207.655 168.048C207.64 167.682 207.554 167.325 207.402 167C207.25 166.675 207.037 166.392 206.776 166.169L205.931 157.789L201.224 159.223L203.515 166.766C203.21 167.279 203.083 167.9 203.16 168.511C203.237 169.121 203.512 169.679 203.933 170.078C204.353 170.477 204.891 170.691 205.443 170.677C205.995 170.664 206.523 170.425 206.928 170.006V170.006Z" fill="#FFB8B8"/>
<path d="M210.367 212.437L212.966 210.562L207.72 198.483L203.885 201.252L210.367 212.437Z" fill="#FFB8B8"/>
<path d="M219.536 209.637L211.371 215.532L209.331 212.011L214.459 208.308C214.858 208.02 215.304 207.823 215.771 207.727C216.238 207.631 216.717 207.639 217.182 207.75C217.646 207.862 218.086 208.074 218.477 208.375C218.868 208.676 219.202 209.06 219.46 209.505L219.536 209.637Z" fill="#2F2E41"/>
<path d="M187.359 213.665H190.453L191.926 200.343H187.359V213.665Z" fill="#FFB8B8"/>
<path d="M196.421 216.872H186.696V212.678H192.804C193.763 212.678 194.683 213.103 195.361 213.86C196.04 214.618 196.421 215.644 196.421 216.715V216.872V216.872Z" fill="#2F2E41"/>
<path d="M199.777 127.638C199.366 129.133 200.824 130.761 201.295 132.231C201.766 133.701 202.4 135.116 202.654 136.654C202.828 137.711 206.775 161.073 206.586 162.495C205.371 162.089 204.062 162.223 202.934 162.869C202.145 161.323 201.671 159.602 201.546 157.829C201.498 156.778 201.507 155.724 201.573 154.673C201.695 151.701 200.541 148.725 200.503 145.751C200.515 144.72 200.442 143.691 200.285 142.675C200.158 141.976 200.17 140.668 200.034 139.972C199.818 138.865 200.748 138.355 200.696 137.22L200.413 131.024C200.353 129.939 199.377 128.608 199.777 127.638Z" fill="#2F2E41"/>
<path d="M185.783 153.634C184.788 155.366 182.693 155.741 181.229 156.982C178.99 158.889 184.701 201.74 186.586 209.353C191.56 208.52 191.734 208.522 192.306 208.242C192.878 207.962 193.396 186.196 194.604 181.71C196.866 184.089 203.986 204.541 205.488 209.075C211.458 207.409 205.488 209.075 213.199 206.854C213.134 205.283 201.805 154.081 201.392 150.047C196.209 151.199 190.951 152.484 185.783 153.634Z" fill="#2F2E41"/>
<path d="M185.112 121.457C184.497 123.489 185.334 131.394 185.395 133.171C185.483 134.785 185.483 136.403 185.395 138.017C185.183 140.812 184.438 143.625 184.938 146.373C185.265 148.191 185.847 149.881 185.983 151.731C186.075 153.013 186.046 154.317 186.41 155.532C187.749 154.891 199.628 152.688 200.501 151.407C199.904 148.187 200.482 144.862 200.085 141.604C199.856 139.726 199.287 137.919 199.019 136.049C198.688 133.742 198.828 131.349 198.225 129.108C197.891 127.973 197.466 126.874 196.956 125.824C196.437 124.629 195.786 123.648 195.563 123.649C194.999 123.683 185.148 121.276 185.112 121.457Z" fill="#50F5F2"/>
<path d="M182.838 169.832C182.838 169.832 184.897 165.245 185.001 162.621C185.037 161.679 187.349 157.929 188.391 157.079C190.86 155.06 192.68 141.527 191.845 138.243C190.402 132.567 187.971 127.274 185.504 122.057C185.431 121.862 185.312 121.693 185.16 121.568C184.658 121.22 184.115 121.905 183.772 122.442C182.61 124.26 180.696 125.232 178.943 126.307C177.189 127.381 175.396 128.813 174.866 130.964C174.51 132.409 174.787 133.94 175.057 135.404C175.327 136.868 176.271 138.03 176.985 139.263C177.812 140.623 179.962 146.657 179.946 147.373C179.988 151.8 180.028 156.242 179.548 160.639C179.278 163.123 179.04 168.116 179.04 168.116L182.838 169.832Z" fill="#2F2E41"/>
<path d="M201.542 165.089C197.75 155.455 197.963 144.493 195.553 134.323C194.837 131.304 193.88 128.27 194.052 125.153C194.083 124.595 194.188 123.969 194.606 123.657C194.977 123.38 195.482 123.454 195.89 123.657C196.298 123.86 196.646 124.191 197.038 124.418C197.672 124.779 198.409 124.882 199.018 125.29C199.921 125.896 200.382 127.05 200.786 128.135C201.649 130.454 202.509 132.836 202.578 135.348C202.723 140.228 200.784 144.918 201.795 149.663C202.013 150.599 202.274 151.522 202.576 152.428C203.589 155.701 204.42 159.041 205.064 162.429C205.177 163.008 201.701 165.495 201.542 165.089Z" fill="#2F2E41"/>
<path d="M189.505 162.81C189.555 162.448 189.534 162.078 189.443 161.726C189.352 161.375 189.193 161.049 188.977 160.774C188.761 160.498 188.494 160.279 188.194 160.131C187.894 159.983 187.568 159.911 187.24 159.918L181.893 153.96L179.018 158.361L185.027 162.657C185.075 163.271 185.323 163.844 185.725 164.267C186.126 164.69 186.653 164.934 187.205 164.953C187.757 164.972 188.296 164.764 188.72 164.369C189.144 163.974 189.423 163.419 189.505 162.81Z" fill="#FFB8B8"/>
<path d="M172.467 149.279C172.556 150.174 179.292 159.615 182.953 162.696C182.74 161.48 185.609 157.515 186.538 156.895C184.218 154.453 179.371 148.787 179.211 148.477C178.686 147.347 179.211 145.997 179.668 144.828C181.109 141.113 181.789 136.897 180.864 132.981C180.516 131.511 179.907 130.039 178.799 129.135C178.315 128.742 177.66 128.473 177.122 128.772C176.897 128.917 176.702 129.113 176.548 129.347C174.831 131.678 172.402 148.614 172.467 149.279Z" fill="#2F2E41"/>
<path d="M188.164 119.953C188.526 118.239 186.696 114.551 187.058 112.837C187.303 111.676 189.749 112.465 190.32 111.457C190.89 110.449 191.846 109.632 192.914 109.618C194.142 109.603 195.351 110.62 196.514 110.18C197.69 109.736 198.066 107.938 197.546 106.68C197.026 105.421 195.906 104.619 194.799 103.99C192.915 102.92 190.72 102.139 188.703 102.847C187.484 103.275 186.464 104.202 185.478 105.109C184.578 105.936 183.664 106.782 183.035 107.877C181.803 110.022 181.878 112.912 182.93 115.173C183.983 117.434 185.901 119.093 188.014 120.056" fill="#2F2E41"/>
</g>
<rect x="0.5" y="0.5" width="261" height="231" stroke="black" stroke-dasharray="5 5"/>
<defs>
<clipPath id="clip0_1_10">
<rect width="200" height="180" fill="white" transform="translate(31 37)"/>
</clipPath>
</defs>
</svg>
