<svg width="21" height="13" viewBox="0 0 21 13" fill="none" xmlns="http://www.w3.org/2000/svg">
<path d="M2.366 10.9464C2.366 11.4911 2.58236 12.0134 2.96748 12.3985C3.3526 12.7836 3.87493 13 4.41957 13H18.7946C19.3392 13 19.8615 12.7836 20.2467 12.3985C20.6318 12.0134 20.8481 11.4911 20.8481 10.9464V2.73214C20.8481 2.1875 20.6318 1.66517 20.2467 1.28005C19.8615 0.89493 19.3392 0.678572 18.7946 0.678572H4.41957C3.87493 0.678572 3.3526 0.89493 2.96748 1.28005C2.58236 1.66517 2.366 2.1875 2.366 2.73214V4.78571H0.312431V8.89286H2.366V10.9464Z" fill="black"/>
</svg>
